<svg xmlns="http://www.w3.org/2000/svg" viewBox="0 0 640 360" width="640" height="360"
     role="img" aria-label="Illustration for kart-racer">
  <defs>
    <linearGradient id="s" x1="0" y1="0" x2="1" y2="1">
      <stop offset="0" stop-color="hsl(258 88% 74%)"/>
      <stop offset="1" stop-color="hsl(196 85% 62%)"/>
    </linearGradient>
    <radialGradient id="g" cx="0.5" cy="0.5" r="0.5">
      <stop offset="0" stop-color="hsl(258 80% 55%)" stop-opacity="0.42"/>
      <stop offset="1" stop-color="hsl(258 80% 55%)" stop-opacity="0"/>
    </radialGradient>
    <pattern id="d" width="26" height="26" patternUnits="userSpaceOnUse">
      <circle cx="1.4" cy="1.4" r="1.4" fill="hsl(196 60% 70%)" opacity="0.13"/>
    </pattern>
  </defs>
  <rect width="640" height="360" fill="#0b0a17"/>
  <rect width="640" height="360" fill="url(#d)"/>
  <ellipse cx="319" cy="161" rx="282" ry="216" fill="url(#g)"/>
  <rect x="125" y="171" width="26" height="26" rx="3" transform="rotate(33 138.0 184.0)" fill="hsl(196 80% 62%)" opacity="0.16"/><circle cx="107" cy="246" r="12" fill="none" stroke="hsl(258 80% 66%)" stroke-width="1.5" opacity="0.22"/><path d="M164 286 176 261 189 286Z" fill="hsl(196 80% 62%)" opacity="0.14"/>
  <g transform="translate(217.5 77.5) scale(2.05)"
     fill="none" stroke="url(#s)" stroke-width="2.4" stroke-linecap="round"
     stroke-linejoin="round" vector-effect="non-scaling-stroke"><path d="M50 19a31 31 0 1 1 0 62 31 31 0 0 1 0-62Z"/><path d="M50 39a11 11 0 1 1 0 22 11 11 0 0 1 0-22Z"/><path d="M50 39V19M41 57 23 72M59 57 77 72"/></g>
</svg>
